name Walk5.mot
datacolumns 19
datarows 10
range 3.60100000 3.61000000
endheader

                time	   L_ground_force_vx	   L_ground_force_vy	   L_ground_force_vz	   L_ground_force_px	   L_ground_force_py	   L_ground_force_pz	   R_ground_force_vx	   R_ground_force_vy	   R_ground_force_vz	   R_ground_force_px	   R_ground_force_py	   R_ground_force_pz	   L_ground_torque_x	   L_ground_torque_y	   L_ground_torque_z	   R_ground_torque_x	   R_ground_torque_y	   R_ground_torque_z	
          3.60100000	         -0.00000000	         -0.00000000	         -0.00000000	         -0.00000000	          0.00000000	         -0.00000000	         23.40791896	        162.87736080	          8.34697594	          0.50849456	          0.00000000	          0.13823836	          0.00000000	         -0.00000000	          0.00000000	          0.00000000	         -5.01661381	          0.00000000	
          3.60200000	         -0.00000000	         -0.00000000	         -0.00000000	         -0.00000000	          0.00000000	         -0.00000000	         22.49058502	        156.71846188	          8.09177416	          0.50729831	          0.00000000	          0.13780011	          0.00000000	         -0.00000000	          0.00000000	          0.00000000	         -4.85295074	          0.00000000	
          3.60300000	         -0.00000000	         -0.00000000	         -0.00000000	         -0.00000000	          0.00000000	         -0.00000000	         21.58502586	        150.70005111	          7.83250242	          0.50590667	          0.00000000	          0.13731059	          0.00000000	         -0.00000000	          0.00000000	          0.00000000	         -4.69090441	          0.00000000	
          3.60400000	         -0.00000000	         -0.00000000	         -0.00000000	         -0.00000000	          0.00000000	         -0.00000000	         20.69207825	        144.82120972	          7.56994212	          0.50430968	          0.00000000	          0.13676713	          0.00000000	         -0.00000000	          0.00000000	          0.00000000	         -4.53062154	          0.00000000	
          3.60500000	         -0.00000000	         -0.00000000	         -0.00000000	         -0.00000000	          0.00000000	         -0.00000000	         19.81254104	        139.08094897	          7.30485484	          0.50249730	          0.00000000	          0.13616703	          0.00000000	         -0.00000000	          0.00000000	          0.00000000	         -4.37224101	          0.00000000	
          3.60600000	         -0.00000000	         -0.00000000	         -0.00000000	          0.00000000	          0.00000000	         -0.00000000	         18.94717207	        133.47822218	          7.03797960	          0.50045948	          0.00000000	          0.13550760	          0.00000000	         -0.00000000	          0.00000000	          0.00000000	         -4.21589324	          0.00000000	
          3.60700000	         -0.00000000	         -0.00000000	         -0.00000000	          0.00000000	          0.00000000	         -0.00000000	         18.09668608	        128.01193348	          6.77003045	          0.49818618	          0.00000000	          0.13478616	          0.00000000	         -0.00000000	          0.00000000	          0.00000000	         -4.06169995	          0.00000000	
          3.60800000	         -0.00000000	         -0.00000000	         -0.00000000	          0.00000000	          0.00000000	         -0.00000000	         17.26175361	        122.68094381	          6.50169450	          0.49566743	          0.00000000	          0.13400005	          0.00000000	         -0.00000000	          0.00000000	          0.00000000	         -3.90977406	          0.00000000	
          3.60900000	         -0.00000000	         -0.00000000	         -0.00000000	          0.00000000	          0.00000000	         -0.00000000	         16.44300086	        117.48407492	          6.23363034	          0.49289335	          0.00000000	          0.13314662	          0.00000000	         -0.00000000	          0.00000000	          0.00000000	         -3.76021988	          0.00000000	
          3.61000000	         -0.00000000	         -0.00000000	         -0.00000000	          0.00000000	          0.00000000	          0.00000000	         15.64101015	        112.42011224	          5.96646714	          0.48985423	          0.00000000	          0.13222330	          0.00000000	         -0.00000000	          0.00000000	          0.00000000	         -3.61313334	          0.00000000	
